<mxfile host="app.diagrams.net" modified="2022-09-24T07:47:49.631Z" agent="5.0 (Macintosh; Intel Mac OS X 10_15_7) AppleWebKit/605.1.15 (KHTML, like Gecko) Version/16.0 Safari/605.1.15" etag="u0uQcoB62ZXBck941LSb" version="20.3.6" type="github">
  <diagram id="PuMi0kId-e-hUfrw8BZP" name="Страница 1">
    <mxGraphModel dx="1644" dy="553" grid="1" gridSize="10" guides="1" tooltips="1" connect="1" arrows="1" fold="1" page="1" pageScale="1" pageWidth="827" pageHeight="1169" math="0" shadow="0">
      <root>
        <mxCell id="0" />
        <mxCell id="1" parent="0" />
        <mxCell id="pfe3GB8zZH_nZLxF0a3G-1" value="&lt;b&gt;&lt;font style=&quot;font-size: 20px;&quot;&gt;Pastebin&lt;/font&gt;&lt;/b&gt;" style="text;html=1;resizable=0;autosize=1;align=center;verticalAlign=middle;points=[];fillColor=none;strokeColor=none;rounded=0;" vertex="1" parent="1">
          <mxGeometry x="-185" y="5" width="110" height="40" as="geometry" />
        </mxCell>
        <mxCell id="pfe3GB8zZH_nZLxF0a3G-2" value="&lt;div style=&quot;text-align: left;&quot;&gt;&lt;b&gt;Functional requirements:&lt;/b&gt;&lt;/div&gt;&lt;br&gt;&lt;div style=&quot;text-align: left;&quot;&gt;* user should add text&lt;/div&gt;&lt;div style=&quot;text-align: left;&quot;&gt;* after paste user should get the link to previously added paste&lt;/div&gt;&lt;div style=&quot;text-align: left;&quot;&gt;* tags on paste&lt;/div&gt;&lt;div style=&quot;text-align: left;&quot;&gt;* user can choose his own link to paste&lt;/div&gt;&lt;div style=&quot;text-align: left;&quot;&gt;* paste should have expiration date user choses&lt;/div&gt;&lt;div style=&quot;text-align: left;&quot;&gt;* create user (out of scope)&lt;/div&gt;&lt;div style=&quot;text-align: left;&quot;&gt;* login (out of scope)&lt;/div&gt;&lt;div style=&quot;text-align: left;&quot;&gt;* relations between user and paste&lt;/div&gt;&lt;div style=&quot;text-align: left;&quot;&gt;* metrics?&lt;/div&gt;&lt;div style=&quot;text-align: left;&quot;&gt;&lt;br&gt;&lt;/div&gt;" style="text;html=1;align=center;verticalAlign=middle;resizable=0;points=[];autosize=1;strokeColor=none;fillColor=none;fontSize=14;" vertex="1" parent="1">
          <mxGeometry x="-530" y="40" width="410" height="210" as="geometry" />
        </mxCell>
        <mxCell id="pfe3GB8zZH_nZLxF0a3G-3" value="&lt;div style=&quot;text-align: left;&quot;&gt;&lt;b&gt;Non functional requirements:&lt;/b&gt;&lt;/div&gt;&lt;div style=&quot;text-align: left;&quot;&gt;* high availability to get pastes&lt;/div&gt;&lt;div style=&quot;text-align: left;&quot;&gt;* eventual consistency&lt;/div&gt;" style="text;html=1;align=center;verticalAlign=middle;resizable=0;points=[];autosize=1;strokeColor=none;fillColor=none;fontSize=14;" vertex="1" parent="1">
          <mxGeometry x="-60" y="40" width="220" height="60" as="geometry" />
        </mxCell>
      </root>
    </mxGraphModel>
  </diagram>
</mxfile>
